<svg width="24" height="24" viewBox="0 0 24 24" fill="none" xmlns="http://www.w3.org/2000/svg">
<path d="M19.2258 3.06077C20.5927 4.42761 20.5927 6.64368 19.2258 8.01052L8.05444 19.1819C7.71992 19.5164 7.31103 19.7671 6.86115 19.9134L3.9452 20.862C2.39062 21.3677 0.918915 19.896 1.42461 18.3414L2.37317 15.4255C2.51951 14.9756 2.77018 14.5667 3.1047 14.2322L14.2761 3.06077C15.6429 1.69394 17.859 1.69393 19.2258 3.06077ZM15.6903 4.47498L4.51891 15.6464C4.4074 15.7579 4.32385 15.8942 4.27507 16.0441L3.32652 18.9601L6.24247 18.0115C6.39243 17.9628 6.52872 17.8792 6.64023 17.7677L17.8116 6.5963C18.3974 6.01052 18.3974 5.06077 17.8116 4.47498C17.2258 3.8892 16.2761 3.8892 15.6903 4.47498ZM10.0002 21.0001C9.44794 21.0001 9.00023 21.4478 9.00023 22.0001C9.00023 22.5524 9.44794 23.0001 10.0002 23.0001H21.0002C21.5525 23.0001 22.0002 22.5524 22.0002 22.0001C22.0002 21.4478 21.5525 21.0001 21.0002 21.0001H10.0002Z" fill="black"/>
</svg> 