<svg width="30" height="30" viewBox="0 0 42 46" fill="none" xmlns="http://www.w3.org/2000/svg">
  <path fill-rule="evenodd" clip-rule="evenodd" d="M38.6815 13.2348L25.053 1.76775C22.5998 -0.448256 18.5113 -0.371936 16.0581 1.94492L2.42959 14.4804C1.06674 15.767 0.249023 17.5769 0.249023 19.4767V38.6221C0.249023 42.3699 3.2473 45.4091 7.06329 45.4091H34.3204C37.8638 45.4091 41.1347 42.3699 41.1347 38.6221V18.4109C41.1347 16.4184 40.0444 14.5268 38.6815 13.2348ZM19.0572 5.27571C20.1474 4.50433 21.2377 4.47707 22.0554 5.21574L35.684 16.6855C36.2291 17.1162 36.5017 17.7458 36.5017 18.4109V38.622C36.5017 39.8704 35.4114 40.8844 34.3211 40.8844H29.6874C29.6874 40.8789 29.6874 40.8735 29.6874 40.868V29.6326C29.6874 27.1332 27.7794 25.108 25.0537 25.108H16.0589C13.6057 25.108 11.6978 27.1332 11.6978 29.6326V40.868C11.6978 40.8735 11.6978 40.8789 11.6978 40.8844H7.06405C5.70119 40.8844 4.88348 39.8704 4.88348 38.622V19.4766C4.88348 18.8443 5.15605 18.2392 5.42862 17.8112L19.0572 5.27571ZM16.0578 29.6328H25.0527V40.8681H16.0578V29.6328Z" fill="#292D32"/>
</svg> 