<svg width="24" height="24" viewBox="0 0 24 24" fill="none" xmlns="http://www.w3.org/2000/svg">
<path d="M14 5C14 4.6615 13.8287 4.34597 13.5449 4.16151C13.2611 3.97705 12.9032 3.94871 12.5939 4.08619L8.48171 5.91381C8.35385 5.97064 8.21549 6 8.07557 6H4C2.34315 6 1 7.34315 1 9V15C1 16.6569 2.34315 18 4 18H8.07557C8.21549 18 8.35385 18.0294 8.48171 18.0862L12.5939 19.9138C12.9032 20.0513 13.2611 20.023 13.5449 19.8385C13.8287 19.654 14 19.3385 14 19V5ZM9.29399 7.74144L12 6.53876V17.4612L9.29399 16.2586C8.91041 16.0881 8.49533 16 8.07557 16H4C3.44772 16 3 15.5523 3 15V9C3 8.44772 3.44772 8 4 8H8.07557C8.49533 8 8.91041 7.91192 9.29399 7.74144ZM19.1993 4.98822C19.6311 4.64388 20.2603 4.71478 20.6046 5.14658C22.1035 7.02621 23.0001 9.4098 23.0001 12C23.0001 14.5903 22.1035 16.9739 20.6046 18.8535C20.2603 19.2853 19.6311 19.3562 19.1993 19.0119C18.7675 18.6675 18.6966 18.0383 19.0409 17.6065C20.2676 16.0684 21.0001 14.1211 21.0001 12C21.0001 9.87896 20.2676 7.93172 19.0409 6.39354C18.6966 5.96174 18.7675 5.33256 19.1993 4.98822ZM16.0013 7.4192C16.4279 7.0684 17.0581 7.12983 17.4089 7.5564C18.4026 8.76474 19 10.314 19 12.0001C19 13.6862 18.4026 15.2354 17.4089 16.4437C17.0581 16.8703 16.4279 16.9317 16.0013 16.5809C15.5748 16.2301 15.5133 15.6 15.8641 15.1734C16.5743 14.3098 17 13.206 17 12.0001C17 10.7942 16.5743 9.69036 15.8641 8.82674C15.5133 8.40017 15.5748 7.76999 16.0013 7.4192Z" fill="rgb(94, 124, 244)"/>
</svg> 